<svg width="171" height="221" viewBox="0 0 171 221" fill="none" xmlns="http://www.w3.org/2000/svg">
<path d="M85.5845 220.397C38.8953 220.397 0.945557 170.987 0.945557 110.199C0.945557 49.41 38.8953 0 85.5845 0C132.274 0 170.223 49.41 170.223 110.199C170.223 170.987 132.274 220.397 85.5845 220.397ZM85.5845 15.3766C45.4302 15.3766 12.7556 57.9183 12.7556 110.199C12.7556 162.479 45.4302 205.021 85.5845 205.021C125.739 205.021 158.413 162.479 158.413 110.199C158.413 57.9183 125.739 15.3766 85.5845 15.3766Z" fill="#FF570F"/>
<path d="M74.4004 146.898C72.8257 146.898 71.3297 146.078 70.2275 144.643L47.9454 115.633C45.6621 112.66 45.6621 107.739 47.9454 104.767C50.2287 101.794 54.0079 101.794 56.2912 104.767L74.4004 128.344L114.87 75.6537C117.153 72.6809 120.932 72.6809 123.215 75.6537C125.499 78.6265 125.499 83.547 123.215 86.5198L78.5733 144.643C77.471 146.078 75.975 146.898 74.4004 146.898Z" fill="#FF570F"/>
</svg>
