<svg width="49" height="59" viewBox="0 0 49 59" fill="none" xmlns="http://www.w3.org/2000/svg">
<g filter="url(#filter0_d_3_821)">
<path d="M7 3H10.045C11.935 3 13.4225 5.0722 13.265 7.45634L11.8125 29.6489C11.5675 33.2808 13.825 36.4002 16.695 36.4002H35.3325C37.8525 36.4002 40.0575 33.771 40.25 30.5847L41.195 13.8735C41.405 10.1747 39.2 7.16667 36.2775 7.16667H13.685" stroke="black" stroke-width="2" stroke-miterlimit="10" stroke-linecap="round" stroke-linejoin="round"/>
<path d="M31.9375 47.5634C33.1457 47.5634 34.125 46.3165 34.125 44.7782C34.125 43.2399 33.1457 41.993 31.9375 41.993C30.7293 41.993 29.75 43.2399 29.75 44.7782C29.75 46.3165 30.7293 47.5634 31.9375 47.5634Z" stroke="black" stroke-width="2" stroke-miterlimit="10" stroke-linecap="round" stroke-linejoin="round"/>
<path d="M17.9375 47.5634C19.1456 47.5634 20.125 46.3165 20.125 44.7782C20.125 43.2399 19.1456 41.993 17.9375 41.993C16.7294 41.993 15.75 43.2399 15.75 44.7782C15.75 46.3165 16.7294 47.5634 17.9375 47.5634Z" stroke="black" stroke-width="2" stroke-miterlimit="10" stroke-linecap="round" stroke-linejoin="round"/>
<path d="M19.25 16.3691H40.25" stroke="black" stroke-width="2" stroke-miterlimit="10" stroke-linecap="round" stroke-linejoin="round"/>
</g>
<defs>
<filter id="filter0_d_3_821" x="0" y="0" width="48.2083" height="58.5634" filterUnits="userSpaceOnUse" color-interpolation-filters="sRGB">
<feFlood flood-opacity="0" result="BackgroundImageFix"/>
<feColorMatrix in="SourceAlpha" type="matrix" values="0 0 0 0 0 0 0 0 0 0 0 0 0 0 0 0 0 0 127 0" result="hardAlpha"/>
<feOffset dy="4"/>
<feGaussianBlur stdDeviation="3"/>
<feComposite in2="hardAlpha" operator="out"/>
<feColorMatrix type="matrix" values="0 0 0 0 0.9125 0 0 0 0 0.0532292 0 0 0 0 0.156342 0 0 0 0.25 0"/>
<feBlend mode="normal" in2="BackgroundImageFix" result="effect1_dropShadow_3_821"/>
<feBlend mode="normal" in="SourceGraphic" in2="effect1_dropShadow_3_821" result="shape"/>
</filter>
</defs>
</svg>
