<svg width="22" height="22" viewBox="0 0 22 22" fill="none" xmlns="http://www.w3.org/2000/svg">
<path d="M21.7859 8.84558H20.8998V8.79993H10.9999V13.1999H17.2165C16.3096 15.7612 13.8725 17.5999 10.9999 17.5999C7.35509 17.5999 4.39996 14.6447 4.39996 10.9999C4.39996 7.35509 7.35509 4.39996 10.9999 4.39996C12.6823 4.39996 14.213 5.03466 15.3784 6.0714L18.4897 2.96008C16.5252 1.12914 13.8973 0 10.9999 0C4.92521 0 0 4.92521 0 10.9999C0 17.0746 4.92521 21.9998 10.9999 21.9998C17.0746 21.9998 21.9998 17.0746 21.9998 10.9999C21.9998 10.2624 21.9239 9.54242 21.7859 8.84558Z" fill="#FFC107"/>
<path d="M1.26831 5.88L4.88233 8.53043C5.86022 6.10935 8.22851 4.39996 10.9999 4.39996C12.6824 4.39996 14.213 5.03466 15.3784 6.0714L18.4898 2.96008C16.5252 1.12914 13.8973 0 10.9999 0C6.77487 0 3.1108 2.38533 1.26831 5.88Z" fill="#FF3D00"/>
<path d="M10.9999 21.9998C13.8412 21.9998 16.4229 20.9124 18.3748 19.1442L14.9704 16.2633C13.866 17.0999 12.4932 17.5998 10.9999 17.5998C8.13887 17.5998 5.70954 15.7755 4.79435 13.2296L1.20728 15.9933C3.02776 19.5556 6.72483 21.9998 10.9999 21.9998Z" fill="#4CAF50"/>
<path d="M21.786 8.84573H20.8999V8.80008H11V13.2H17.2166C16.781 14.4304 15.9896 15.4913 14.9688 16.2641C14.9693 16.2635 14.9699 16.2635 14.9704 16.263L18.3749 19.1438C18.134 19.3627 21.9999 16.5 21.9999 11.0001C21.9999 10.2625 21.924 9.54257 21.786 8.84573Z" fill="#1976D2"/>
</svg>
