<svg width="25" height="37" viewBox="0 0 25 37" fill="none" xmlns="http://www.w3.org/2000/svg">
<path d="M11.6301 34.837C5.21934 34.837 0 27.0199 0 17.4185C0 7.81708 5.21934 0 11.6301 0C18.0408 0 23.2601 7.81708 23.2601 17.4185C23.2601 27.0199 18.0408 34.837 11.6301 34.837ZM11.6301 2.54905C6.14975 2.54905 1.70196 9.22755 1.70196 17.4185C1.70196 25.6094 6.14975 32.2879 11.6301 32.2879C17.1104 32.2879 21.5581 25.6094 21.5581 17.4185C21.5581 9.22755 17.1104 2.54905 11.6301 2.54905Z" fill="#E31212"/>
<path d="M23.5442 36.5356C23.3286 36.5356 23.113 36.4166 22.9428 36.1617L20.6735 32.763C20.3445 32.2702 20.3445 31.4545 20.6735 30.9617C21.0026 30.4688 21.5472 30.4688 21.8763 30.9617L24.1455 34.3604C24.4746 34.8532 24.4746 35.6689 24.1455 36.1617C23.9753 36.4166 23.7598 36.5356 23.5442 36.5356Z" fill="#E31212"/>
</svg>
