<svg width="34" height="44" viewBox="0 0 34 44" fill="none" xmlns="http://www.w3.org/2000/svg">
<path d="M25.4705 29.4379C24.3951 29.4379 23.4329 29.9871 22.697 30.8476L12.6079 23.25C12.6786 22.8289 12.7352 22.4079 12.7352 21.9685C12.7352 21.5291 12.6786 21.1081 12.6079 20.687L22.5838 13.1627C23.348 14.078 24.3526 14.6456 25.4705 14.6456C27.8194 14.6456 29.7156 12.1924 29.7156 9.15334C29.7156 6.11432 27.8194 3.66113 25.4705 3.66113C23.1215 3.66113 21.2254 6.11432 21.2254 9.15334C21.2254 9.59272 21.282 10.0138 21.3528 10.4349L11.3768 17.9592C10.6127 17.0438 9.60804 16.4763 8.49017 16.4763C6.14122 16.4763 4.24509 18.9295 4.24509 21.9685C4.24509 25.0075 6.14122 27.4607 8.49017 27.4607C9.60804 27.4607 10.6127 26.8932 11.3768 25.9778L21.4518 33.5937C21.3811 33.9781 21.3386 34.3809 21.3386 34.7837C21.3386 37.7311 23.1923 40.1294 25.4705 40.1294C27.7487 40.1294 29.6024 37.7311 29.6024 34.7837C29.6024 31.8362 27.7487 29.4379 25.4705 29.4379Z" fill="#8C8787"/>
</svg>
