<svg width="49" height="52" viewBox="0 0 49 52" fill="none" xmlns="http://www.w3.org/2000/svg">
<g filter="url(#filter0_d_3_1254)">
<path d="M7 3H10.045C11.935 3 13.4225 4.74216 13.265 6.74658L11.8125 25.4045C11.5675 28.458 13.825 31.0806 16.695 31.0806H35.3325C37.8525 31.0806 40.0575 28.8701 40.25 26.1913L41.195 12.1416C41.405 9.03199 39.2 6.50305 36.2775 6.50305H13.685" stroke="black" stroke-width="2" stroke-miterlimit="10" stroke-linecap="round" stroke-linejoin="round"/>
<path d="M31.9375 40.4656C33.1457 40.4656 34.125 39.4173 34.125 38.124C34.125 36.8307 33.1457 35.7824 31.9375 35.7824C30.7293 35.7824 29.75 36.8307 29.75 38.124C29.75 39.4173 30.7293 40.4656 31.9375 40.4656Z" stroke="black" stroke-width="2" stroke-miterlimit="10" stroke-linecap="round" stroke-linejoin="round"/>
<path d="M17.9375 40.4656C19.1456 40.4656 20.125 39.4173 20.125 38.124C20.125 36.8307 19.1456 35.7824 17.9375 35.7824C16.7294 35.7824 15.75 36.8307 15.75 38.124C15.75 39.4173 16.7294 40.4656 17.9375 40.4656Z" stroke="black" stroke-width="2" stroke-miterlimit="10" stroke-linecap="round" stroke-linejoin="round"/>
<path d="M19.25 14.2401H40.25" stroke="black" stroke-width="2" stroke-miterlimit="10" stroke-linecap="round" stroke-linejoin="round"/>
</g>
<defs>
<filter id="filter0_d_3_1254" x="0" y="0" width="48.2087" height="51.4656" filterUnits="userSpaceOnUse" color-interpolation-filters="sRGB">
<feFlood flood-opacity="0" result="BackgroundImageFix"/>
<feColorMatrix in="SourceAlpha" type="matrix" values="0 0 0 0 0 0 0 0 0 0 0 0 0 0 0 0 0 0 127 0" result="hardAlpha"/>
<feOffset dy="4"/>
<feGaussianBlur stdDeviation="3"/>
<feComposite in2="hardAlpha" operator="out"/>
<feColorMatrix type="matrix" values="0 0 0 0 0.9125 0 0 0 0 0.0532292 0 0 0 0 0.156342 0 0 0 0.25 0"/>
<feBlend mode="normal" in2="BackgroundImageFix" result="effect1_dropShadow_3_1254"/>
<feBlend mode="normal" in="SourceGraphic" in2="effect1_dropShadow_3_1254" result="shape"/>
</filter>
</defs>
</svg>
