<svg width="169" height="204" viewBox="0 0 169 204" fill="none" xmlns="http://www.w3.org/2000/svg">
<path d="M84.4433 203.746C37.862 203.746 0 158.069 0 101.873C0 45.6771 37.862 0 84.4433 0C131.025 0 168.887 45.6771 168.887 101.873C168.887 158.069 131.025 203.746 84.4433 203.746ZM84.4433 14.2149C44.3818 14.2149 11.7828 53.5426 11.7828 101.873C11.7828 150.204 44.3818 189.531 84.4433 189.531C124.505 189.531 157.104 150.204 157.104 101.873C157.104 53.5426 124.505 14.2149 84.4433 14.2149Z" fill="#FF570F"/>
<path d="M73.285 135.8C71.7139 135.8 70.2215 135.042 69.1217 133.715L46.8912 106.897C44.6132 104.149 44.6132 99.5998 46.8912 96.8516C49.1692 94.1034 52.9397 94.1034 55.2177 96.8516L73.285 118.648L113.661 69.9381C115.939 67.1899 119.709 67.1899 121.987 69.9381C124.265 72.6863 124.265 77.2351 121.987 79.9833L77.4482 133.715C76.3485 135.042 74.856 135.8 73.285 135.8Z" fill="#FF570F"/>
</svg>
