<svg width="25" height="29" viewBox="0 0 25 29" fill="none" xmlns="http://www.w3.org/2000/svg">
<path d="M23.5067 13.2071L3.08206 0.865419C2.84364 0.721366 2.5719 0.643999 2.29446 0.641192C2.01703 0.638386 1.74382 0.710239 1.50262 0.84944C1.26143 0.988641 1.06087 1.19022 0.921345 1.43367C0.781821 1.67712 0.708318 1.95374 0.708313 2.23539V26.4251C0.708637 26.7043 0.781093 26.9784 0.918445 27.2202C1.0558 27.462 1.25324 27.663 1.49105 27.8031C1.72886 27.9432 1.99872 28.0176 2.27368 28.0187C2.54864 28.0198 2.81907 27.9476 3.05797 27.8095L23.4825 15.9616C23.7208 15.8233 23.9193 15.624 24.0581 15.3836C24.197 15.1432 24.2713 14.8701 24.2737 14.5915C24.2761 14.3128 24.2066 14.0384 24.072 13.7955C23.9374 13.5527 23.7424 13.3499 23.5065 13.2073L23.5067 13.2071ZM2.80231 25.5094V3.17019L21.6643 14.5677L2.80231 25.5094Z" fill="#D2CACA"/>
</svg>
