<svg width="49" height="58" viewBox="0 0 49 58" fill="none" xmlns="http://www.w3.org/2000/svg">
<g filter="url(#filter0_d_3_749)">
<path d="M7 3H10.0415C11.9293 3 13.4151 5.03145 13.2577 7.3687L11.8069 29.1248C11.5622 32.6853 13.8171 35.7434 16.6838 35.7434H35.2997C37.8168 35.7434 40.0192 33.1659 40.2115 30.0423L41.1554 13.6596C41.3652 10.0336 39.1627 7.08474 36.2436 7.08474H13.6773" stroke="black" stroke-width="2" stroke-miterlimit="10" stroke-linecap="round" stroke-linejoin="round"/>
<path d="M31.9086 46.687C33.1154 46.687 34.0936 45.4646 34.0936 43.9565C34.0936 42.4484 33.1154 41.2261 31.9086 41.2261C30.7018 41.2261 29.7237 42.4484 29.7237 43.9565C29.7237 45.4646 30.7018 46.687 31.9086 46.687Z" stroke="black" stroke-width="2" stroke-miterlimit="10" stroke-linecap="round" stroke-linejoin="round"/>
<path d="M17.9248 46.687C19.1316 46.687 20.1098 45.4646 20.1098 43.9565C20.1098 42.4484 19.1316 41.2261 17.9248 41.2261C16.7181 41.2261 15.7399 42.4484 15.7399 43.9565C15.7399 45.4646 16.7181 46.687 17.9248 46.687Z" stroke="black" stroke-width="2" stroke-miterlimit="10" stroke-linecap="round" stroke-linejoin="round"/>
<path d="M19.2358 16.1062H40.2115" stroke="black" stroke-width="2" stroke-miterlimit="10" stroke-linecap="round" stroke-linejoin="round"/>
</g>
<defs>
<filter id="filter0_d_3_749" x="0" y="0" width="48.1687" height="57.687" filterUnits="userSpaceOnUse" color-interpolation-filters="sRGB">
<feFlood flood-opacity="0" result="BackgroundImageFix"/>
<feColorMatrix in="SourceAlpha" type="matrix" values="0 0 0 0 0 0 0 0 0 0 0 0 0 0 0 0 0 0 127 0" result="hardAlpha"/>
<feOffset dy="4"/>
<feGaussianBlur stdDeviation="3"/>
<feComposite in2="hardAlpha" operator="out"/>
<feColorMatrix type="matrix" values="0 0 0 0 0.9125 0 0 0 0 0.0532292 0 0 0 0 0.156342 0 0 0 0.25 0"/>
<feBlend mode="normal" in2="BackgroundImageFix" result="effect1_dropShadow_3_749"/>
<feBlend mode="normal" in="SourceGraphic" in2="effect1_dropShadow_3_749" result="shape"/>
</filter>
</defs>
</svg>
