<svg width="24" height="34" viewBox="0 0 24 34" fill="none" xmlns="http://www.w3.org/2000/svg">
<path fill-rule="evenodd" clip-rule="evenodd" d="M23.0698 3.44708C23.4784 2.86762 23.4784 1.92813 23.0698 1.34868C22.6609 0.769191 21.9982 0.769191 21.5894 1.34868L11.8629 15.1375L2.13638 1.34868C1.72763 0.769191 1.06493 0.769191 0.656183 1.34868C0.247418 1.92813 0.247418 2.86762 0.656183 3.44708L10.3827 17.236L0.656183 31.0247C0.247418 31.6043 0.247418 32.5438 0.656183 33.1234C1.06493 33.7027 1.72763 33.7027 2.13638 33.1234L11.8629 19.3344L21.5894 33.1234C21.9982 33.7027 22.6609 33.7027 23.0698 33.1234C23.4784 32.5438 23.4784 31.6043 23.0698 31.0247L13.3431 17.236L23.0698 3.44708Z" fill="black"/>
</svg>
