<svg width="20" height="23" viewBox="0 0 20 23" fill="none" xmlns="http://www.w3.org/2000/svg">
<path d="M18.1596 1.99102C17.666 1.35949 17.08 0.85859 16.435 0.516961C15.79 0.175332 15.0988 -0.000334899 14.4008 4.79316e-07C13.7027 0.000335858 13.0116 0.176667 12.3668 0.518916C11.722 0.861165 11.1363 1.36262 10.6431 1.99463L9.99927 2.82842L9.3608 1.99644L9.35665 1.99113C8.86329 1.35989 8.27759 0.859162 7.63299 0.517537C6.98839 0.175913 6.29751 8.09076e-05 5.5998 8.09076e-05C4.90208 8.09076e-05 4.2112 0.175913 3.5666 0.517537C2.922 0.859162 2.3363 1.35989 1.84294 1.99113L1.55613 2.3581C0.559755 3.63294 0 5.36198 0 7.16486C0 8.96775 0.559755 10.6968 1.55613 11.9716L9.12599 21.6569L9.98084 22.8029L10.0012 22.7768L10.0233 22.8051L10.8243 21.7239L18.4464 11.9715C19.4413 10.6956 20 8.96695 20 7.1647C20 5.36245 19.4413 3.63379 18.4464 2.35794L18.1596 1.99102ZM17.507 10.7698L10.0012 20.3734L2.49528 10.7698C1.748 9.81367 1.32819 8.51689 1.32819 7.16473C1.32819 5.81257 1.748 4.51579 2.49528 3.55967L2.78214 3.19269C3.52905 2.23704 4.54197 1.69994 5.59826 1.69943C6.65455 1.69892 7.66778 2.23505 8.41526 3.18998L9.9964 5.24987L11.5851 3.19269C11.9551 2.71926 12.3944 2.34372 12.8778 2.0875C13.3613 1.83128 13.8794 1.69941 14.4027 1.69941C14.926 1.69941 15.4441 1.83128 15.9276 2.0875C16.4111 2.34372 16.8503 2.71926 17.2203 3.19269L17.5072 3.55961C18.2533 4.51653 18.6723 5.81305 18.6723 7.16475C18.6723 8.51645 18.2532 9.81294 17.507 10.7698Z" fill="black"/>
</svg>
