<svg width="24" height="23" viewBox="0 0 24 23" fill="none" xmlns="http://www.w3.org/2000/svg">
<path d="M18 15.2046C17.24 15.2046 16.56 15.4882 16.04 15.9327L8.91 12.0085C8.96 11.7911 9 11.5736 9 11.3466C9 11.1197 8.96 10.9022 8.91 10.6847L15.96 6.79845C16.5 7.27123 17.21 7.56436 18 7.56436C19.66 7.56436 21 6.29729 21 4.72764C21 3.158 19.66 1.89093 18 1.89093C16.34 1.89093 15 3.158 15 4.72764C15 4.95458 15.04 5.17206 15.09 5.38954L8.04 9.27584C7.5 8.80306 6.79 8.50993 6 8.50993C4.34 8.50993 3 9.777 3 11.3466C3 12.9163 4.34 14.1834 6 14.1834C6.79 14.1834 7.5 13.8902 8.04 13.4174L15.16 17.351C15.11 17.5496 15.08 17.7576 15.08 17.9656C15.08 19.488 16.39 20.7267 18 20.7267C19.61 20.7267 20.92 19.488 20.92 17.9656C20.92 16.4433 19.61 15.2046 18 15.2046Z" fill="#8C8787"/>
</svg>
