<svg width="24" height="36" viewBox="0 0 24 36" fill="none" xmlns="http://www.w3.org/2000/svg">
<path d="M22.8248 16.306L2.37649 0.392013C2.1378 0.206265 1.86574 0.106505 1.58799 0.102885C1.31023 0.099266 1.0367 0.191916 0.795231 0.371409C0.553758 0.550901 0.352963 0.810828 0.213278 1.12474C0.0735935 1.43865 4.55858e-06 1.79534 0 2.15852V33.3498C0.000324256 33.7098 0.0728642 34.0633 0.210375 34.3751C0.347887 34.6869 0.545557 34.946 0.783644 35.1267C1.02173 35.3074 1.29191 35.4032 1.56718 35.4046C1.84246 35.4061 2.11321 35.313 2.35238 35.1349L22.8006 19.8577C23.0392 19.6794 23.2379 19.4224 23.3769 19.1125C23.5159 18.8025 23.5903 18.4503 23.5927 18.091C23.5951 17.7317 23.5255 17.3778 23.3907 17.0647C23.256 16.7515 23.0608 16.49 22.8246 16.3062L22.8248 16.306ZM2.09642 32.1691V3.36388L20.9802 18.0604L2.09642 32.1691Z" fill="#D2CACA"/>
</svg>
